<svg width="12" height="12" viewBox="0 0 12 12" fill="none" xmlns="http://www.w3.org/2000/svg">
<path d="M11.0021 4.28993L7.95835 3.85176L6.59794 1.12815C6.35419 0.642667 5.64794 0.636496 5.4021 1.12815L4.04169 3.85176L0.997937 4.28993C0.452103 4.3681 0.233353 5.03254 0.629187 5.41311L2.83127 7.53194L2.31044 10.525C2.21669 11.0661 2.79377 11.4713 3.2771 11.2183L6.00002 9.80505L8.72294 11.2183C9.20627 11.4692 9.78335 11.0661 9.6896 10.525L9.16877 7.53194L11.3709 5.41311C11.7667 5.03254 11.5479 4.3681 11.0021 4.28993ZM8.09585 7.18634L8.5896 10.0334L6.00002 8.69009L3.41044 10.0334L3.90419 7.18634L1.80835 5.17037L4.70419 4.75483L6.00002 2.16287L7.29585 4.75483L10.1917 5.17037L8.09585 7.18634Z" fill="white"/>
</svg>
